<?xml version="1.0" encoding="utf-8"?>
<!-- Generator: Adobe Illustrator 16.0.0, SVG Export Plug-In . SVG Version: 6.00 Build 0)  -->
<!DOCTYPE svg PUBLIC "-//W3C//DTD SVG 1.1//EN" "http://www.w3.org/Graphics/SVG/1.1/DTD/svg11.dtd">
<svg version="1.1" id="Layer_1" xmlns="http://www.w3.org/2000/svg" xmlns:xlink="http://www.w3.org/1999/xlink" x="0px" y="0px"
	 width="960px" height="560px" viewBox="0 0 960 560" enable-background="new 0 0 960 560" xml:space="preserve">
<g>
	<path fill="#FFFFFF" d="M92.433,170.809H59.675v42.796H9.278V36.278h79.375c36.119,0,54.177,21.833,54.177,65.493
		c0,9.617-0.839,18.598-2.519,26.953c-1.68,8.358-4.515,15.647-8.505,21.869c-3.988,6.23-9.17,11.152-15.539,14.778
		C109.896,169,101.951,170.809,92.433,170.809z M71.224,81.674H59.675v43.74h11.549c6.159,0,10.605-0.708,13.335-2.128
		c2.73-1.42,4.094-4.729,4.094-9.932V93.496c0-5.043-1.364-8.276-4.094-9.694C81.829,82.384,77.382,81.674,71.224,81.674z"/>
	<path fill="#FFFFFF" d="M195.536,213.605H142.41l40.737-177.327h77.907l40.739,177.327h-53.128l-5.881-28.134h-41.577
		L195.536,213.605z M220.735,90.658l-10.289,49.653h23.099l-10.081-49.653H220.735z"/>
	<path fill="#FFFFFF" d="M421.483,154.496l27.298,59.109h-55.437l-20.579-52.725h-10.92v52.725h-50.397V36.278h79.375
		c36.12,0,54.177,20.729,54.177,62.182C445.001,126.835,437.161,145.51,421.483,154.496z M373.395,81.674h-11.549v35.463h11.549
		c6.159,0,10.606-0.708,13.335-2.125c2.73-1.42,4.094-4.648,4.094-9.698V93.496c0-5.043-1.364-8.276-4.094-9.694
		C384,82.384,379.554,81.674,373.395,81.674z"/>
	<path fill="#FFFFFF" d="M517.864,136.529h-1.05v77.076h-50.396V36.278h50.396v72.351h1.05c0.139-2.84,0.421-5.399,0.842-7.685
		c0.42-2.284,0.978-4.293,1.681-6.03l24.568-58.636h54.597l-37.8,87.008l39.06,90.318h-54.599l-25.826-63.6
		c-0.703-1.736-1.261-3.702-1.681-5.911C518.285,141.89,518.003,139.365,517.864,136.529z"/>
	<path fill="#FFFFFF" d="M672.623,210.53l7.14-46.813c15.398,4.256,29.326,6.384,41.788,6.384c6.3,0,11.864-0.12,16.693-0.354
		c4.832-0.239,9.136-0.67,12.916-1.301v-14.185l-22.68-2.128c-10.221-1.101-18.76-2.994-25.619-5.676
		c-6.86-2.679-12.356-6.342-16.483-10.995c-4.13-4.648-7.071-10.244-8.819-16.785c-1.753-6.539-2.625-14.223-2.625-23.053
		c0-12.135,1.119-22.262,3.359-30.382c2.239-8.116,5.809-14.66,10.711-19.624c4.897-4.966,11.232-8.472,19.003-10.521
		c7.771-2.047,17.252-3.075,28.454-3.075c22.259,0,42.417,2.365,60.479,7.094l-6.302,45.396c-15.682-2.838-28.211-4.256-37.59-4.256
		c-9.381,0-17.359,0.471-23.938,1.418v13.95l18.059,1.891c11.058,1.264,20.298,3.35,27.72,6.265
		c7.42,2.921,13.4,6.738,17.953,11.468c4.549,4.729,7.769,10.325,9.661,16.786c1.887,6.465,2.83,13.873,2.83,22.227
		c0,11.979-1.4,22.069-4.197,30.263c-2.802,8.196-6.161,14.423-10.078,18.68c-3.223,3.467-7.211,6.188-11.969,8.154
		c-4.762,1.975-9.803,3.429-15.122,4.375c-5.32,0.947-10.676,1.536-16.063,1.774c-5.392,0.234-10.257,0.354-14.594,0.354
		c-10.921,0-21.42-0.631-31.5-1.893C691.731,214.705,682,212.897,672.623,210.53z"/>
	<path fill="#FFFFFF" d="M820.451,36.278h50.398v133.114h17.848c6.44,0,10.818-0.947,13.124-2.84
		c2.312-1.889,3.467-5.988,3.467-12.291V36.278h50.399v99.538c0,15.132-0.876,27.9-2.625,38.306
		c-1.755,10.402-5.114,18.875-10.08,25.414c-4.972,6.542-11.865,11.233-20.684,14.069c-8.822,2.836-20.23,4.256-34.23,4.256
		c-13.998,0-25.408-1.42-34.228-4.256c-8.818-2.836-15.716-7.484-20.683-13.95c-4.974-6.461-8.333-14.931-10.081-25.417
		c-1.751-10.479-2.626-23.29-2.626-38.421V36.278z"/>
</g>
<g>
	<path fill="#FFFFFF" d="M446.188,423.695v-62.656h-37.797v62.656h-50.397V246.369h50.397v62.657h37.797v-62.657h50.399v177.327
		H446.188z"/>
	<path fill="#FFFFFF" d="M564.832,246.369l13.858,62.418h1.892l14.069-62.418h55.646L604.94,375.461v48.234h-50.397v-48.234
		l-45.357-129.092H564.832z"/>
	<path fill="#FFFFFF" d="M659.117,246.369h50.396v133.115h17.851c6.438,0,10.813-0.947,13.124-2.84
		c2.311-1.89,3.464-5.988,3.464-12.292V246.369h50.399v99.539c0,15.132-0.879,27.899-2.626,38.305
		c-1.753,10.402-5.112,18.876-10.079,25.414c-4.97,6.543-11.866,11.233-20.685,14.069s-20.23,4.256-34.229,4.256
		c-13.999,0-25.408-1.42-34.228-4.256c-8.82-2.836-15.717-7.484-20.685-13.95c-4.971-6.461-8.331-14.931-10.079-25.417
		c-1.752-10.479-2.625-23.289-2.625-38.421V246.369z"/>
	<path fill="#FFFFFF" d="M955.619,423.695h-47.455l-38.431-62.892c-0.7-1.101-1.257-2.756-1.678-4.964
		c-0.421-2.206-0.7-5.123-0.84-8.751h-1.05v76.606H815.77V246.369h47.457l38.427,62.892c0.7,1.104,1.261,2.759,1.682,4.964
		c0.42,2.209,0.697,5.126,0.84,8.751h1.05v-76.607h50.395V423.695z"/>
</g>
<path fill="#F4C892" d="M134.066,395.045L134.066,395.045c-5.905-5.24-23.625-15.072-31.616-16.057l-17.374-2.297l11.815-85.857
	c10.075,1.308,17.717,0.65,19.805-0.656l68.792-29.827c8.686-3.6,14.941-3.272,19.458,2.624l0,0
	c4.865,5.897,3.476,14.094-2.78,18.351l-22.235,16.064c-2.086,1.309-1.043,4.584,1.389,4.915l109.791,13.763
	c7.644,0.98,13.202,7.212,12.507,14.416c-0.694,7.545-7.988,12.785-15.633,11.802l16.328,1.968
	c7.646,0.98,13.205,7.533,12.162,14.746l0,0c-1.042,7.208-7.99,12.455-15.637,11.468l-19.801-2.62
	c7.642,0.98,13.2,7.536,12.161,14.746l0,0c-1.044,7.212-7.993,12.452-15.637,11.472l-19.109-2.292
	c7.644,0.984,13.205,7.541,12.161,14.745l0,0c-1.041,7.212-7.992,12.453-15.635,11.469L157,404.55
	C147.617,403.569,139.973,399.965,134.066,395.045z"/>
<g>
	<path fill="#E2B583" d="M269.571,406.518L269.571,406.518c0.348-2.295,0-4.588-1.045-6.884c-2.776,3.607-7.642,5.575-12.854,4.916
		l-46.556-6.225c-7.646-0.98-14.593,3.936-15.635,11.142l0,0l60.108,8.195C261.233,418.971,268.525,413.729,269.571,406.518z"/>
	<path fill="#E2B583" d="M257.41,391.772l19.11,2.292c7.643,0.98,14.591-4.26,15.634-11.472l0,0c0.346-2.293,0-4.586-1.043-6.881
		c-3.126,3.607-7.643,5.572-12.854,4.915l-19.112-2.295l-46.208-5.569c-7.644-0.987-14.593,4.261-15.636,11.47l0,0L257.41,391.772z"
		/>
	<path fill="#E2B583" d="M300.144,370.467c7.644,0.987,14.594-4.26,15.637-11.468l0,0c0.348-2.296,0-4.589-1.043-6.882
		c-3.128,3.602-7.644,5.569-12.856,4.917l-85.471-10.488c-7.642-0.981-14.592,4.256-15.634,11.472l0,0L300.144,370.467z"/>
</g>
<path fill="#EFCEBD" d="M287.635,342.285c7.645,0.983,14.943-4.257,15.637-11.802c0.346-2.288,0-4.587-1.042-6.552
	c-3.127,3.604-7.644,5.572-12.856,4.916l-69.141-8.523c-7.642-0.98-14.591,4.264-15.634,11.472l0,0L287.635,342.285z"/>
<path fill="#FED9A8" d="M220.233,425.852L220.233,425.852c-7.992,1.315-27.098,8.523-32.66,14.093l-12.509,11.797l-64.97-60.953
	c7.296-6.884,11.116-13.109,11.465-15.405l16.676-69.805c0-7.209,6.255-13.104,13.899-13.104l0,0
	c7.643,0,13.896,5.896,13.896,13.104l-0.347,26.546c0,2.296,3.128,3.605,4.866,1.969l78.172-73.742
	c5.56-5.236,14.248-5.568,19.803-0.324c5.908,5.241,5.908,13.762,0.35,19.01l11.468-10.821c5.557-5.241,14.244-5.241,19.8,0l0,0
	c5.561,5.248,5.561,13.437,0,18.684L285.9,300.338c5.556-5.247,14.243-5.247,19.804,0l0,0c5.558,5.24,5.558,13.433,0,18.678
	l-13.55,12.78c5.558-5.244,14.244-5.244,19.806,0l0,0c5.558,5.245,5.558,13.438,0,18.682l-70.532,65.545
	C235.868,420.936,228.223,424.543,220.233,425.852z"/>
<g>
	<path fill="#F4C892" d="M312.305,331.468L312.305,331.468c-1.739-1.64-3.821-2.947-6.255-3.272c1.391,4.258,0,9.173-3.472,12.781
		l-33.358,31.131c-5.558,4.916-5.558,13.437,0,18.353l0,0l43.433-40.311C317.865,344.905,317.865,336.713,312.305,331.468z"/>
	<path fill="#F4C892" d="M292.5,331.468l13.55-12.78c5.559-5.241,5.559-13.434,0-18.678l0,0c-1.737-1.641-3.82-2.948-6.252-3.279
		c1.388,4.26,0,9.176-3.475,12.779l-13.55,12.782l-33.357,31.458c-5.208,5.249-5.208,13.441,0,18.357l0.35,0.327L292.5,331.468z"/>
	<path fill="#F4C892" d="M300.492,286.572c5.559-5.247,5.559-13.439,0-18.68l0,0c-1.737-1.64-3.823-2.949-6.255-3.276
		c1.393,4.256,0,9.173-3.474,12.78l-61.148,57.677c-5.212,5.244-5.212,13.439,0,18.356l0.346,0.32L300.492,286.572z"/>
	<path fill="#F4C892" d="M269.221,278.705c5.56-5.241,5.56-13.762-0.346-19.006c-1.737-1.636-3.823-2.621-5.905-3.276
		c1.043,4.257,0,9.176-3.476,12.777l-49.683,47.194c-5.212,5.241-5.212,13.434,0,18.351l0.347,0.328L269.221,278.705z"/>
</g>
<path fill="#FFFFFF" d="M79.867,286.241l-12.509,89.471c-0.346,1.967,1.043,3.607,3.126,3.929l20.848,2.627
	c2.085,0.325,3.821-0.983,4.167-2.948l12.511-89.471c0.346-1.968-1.043-3.607-3.129-3.929l-20.843-2.627
	C81.952,282.964,79.867,284.273,79.867,286.241z"/>
<path fill="#F7F7F7" d="M70.138,379.641l20.848,2.627c2.083,0.325,3.82-0.983,4.167-2.948l5.908-41.951l-28.143-4.915l-6.255,43.259
	C66.663,377.679,68.054,379.319,70.138,379.641z"/>
<path fill="#0E6EB8" d="M41.995,275.428L27.75,377.023c-0.346,2.296,1.391,4.261,3.822,4.261l40.998,2.948
	c2.086,0,4.169-1.309,4.517-3.276l13.899-97.335c0.346-1.969-1.043-3.929-3.129-4.257l-40.65-7.212
	C44.427,271.824,42.342,273.133,41.995,275.428z"/>
<path fill="#0E6EB8" d="M76.739,380.956l3.824-27.858c-0.348,1.969-2.433,2.952-4.169,2.952l-41.694-2.952
	c-1.737,0-2.781-0.98-3.476-2.296l-3.819,26.222c-0.348,2.296,1.389,4.261,3.819,4.261l40.998,2.948
	C74.656,384.563,76.393,382.924,76.739,380.956z"/>
<path fill="#FFFFFF" d="M95.849,400.945l67.752,63.58c1.389,1.309,3.819,1.309,5.21,0l14.94-14.093c1.389-1.309,1.389-3.604,0-4.912
	L116,381.939c-1.391-1.313-3.821-1.313-5.212,0l-14.939,14.09C94.46,397.345,94.46,399.634,95.849,400.945z"/>
<path fill="#F7F7F7" d="M183.752,445.521l-33.705-31.791l-20.149,19.006l33.703,31.79c1.389,1.309,3.819,1.309,5.21,0l14.94-14.093
	C185.141,449.124,185.141,446.829,183.752,445.521z"/>
<path fill="#0E6EB8" d="M63.882,422.575l77.133,72.429c1.737,1.637,4.519,1.637,5.906,0l27.45-29.17c1.387-1.64,1.387-3.929,0-5.244
	l-73.658-69.478c-1.389-1.308-3.821-1.633-5.56,0l-30.576,25.891C62.148,418.318,62.148,420.936,63.882,422.575z"/>
<path fill="#0E6EB8" d="M146.576,494.68l27.448-29.174c1.389-1.632,1.389-3.929,0-5.241l-22.236-20.98
	c1.042,1.317,1.042,3.608-0.347,4.917l-27.45,29.173c-1.387,1.641-4.167,1.641-5.906,0.325l-54.548-51.451l0.346,0.327
	l77.133,72.429C142.405,496.641,145.185,496.313,146.576,494.68z"/>
<path fill="#FFE0BB" d="M236.216,372.763l-27.448-25.89c-6.256-5.896-15.983-5.896-22.236,0l-1.391,1.309
	c-4.517,4.26-10.423,6.557-16.678,6.557s-12.162-2.297-16.676-6.557l0,0c-1.042-0.981-2.779-0.656-3.127,0.987l-7.296,30.804l0,0
	c-0.694,3.604,0.347,7.208,3.127,9.507l28.142,26.543c3.475,3.276,8.688,3.933,13.205,1.964c10.77-5.569,23.974-9.501,30.226-10.815
	c4.17-0.653,7.646-2.621,10.772-5.241l9.033-8.193C242.471,387.84,242.471,378.332,236.216,372.763z"/>
<path d="M273.739,407.171c0.348-3.273,0-6.55-1.391-9.498l3.821,0.325c4.867,0.654,9.73-0.653,13.55-3.278
	c3.823-2.947,6.255-6.88,6.948-11.472c0.35-3.275,0-6.557-1.389-9.505l4.518,0.66c4.863,0.652,9.727-0.66,13.548-3.28
	c3.822-2.948,6.255-6.884,6.949-11.469c0.348-3.604,0-7.213-1.735-10.161c1.735-2.62,2.43-5.567,2.43-8.845
	c0-4.588-1.737-8.853-5.21-12.128l0,0c-2.435-2.293-5.561-3.933-9.038-4.589l2.782-2.617c3.473-3.283,5.212-7.544,5.212-12.131
	c0-4.59-1.739-8.846-5.212-12.122l0,0c-2.432-2.296-5.559-3.936-8.688-4.588l3.128-2.952c3.475-3.28,5.213-7.537,5.213-12.125
	s-1.738-8.851-5.213-12.128l0,0c-3.474-3.276-7.991-4.917-12.855-4.917c-4.863,0-9.381,1.968-12.854,4.917l-0.696,0.656
	c-0.693-3.276-2.434-6.225-5.212-8.521c-7.297-6.225-18.76-6.225-25.709,0.66l-46.21,42.603l-15.289-1.968l19.805-14.09
	c7.99-5.903,9.381-16.716,3.476-24.258c-8.688-10.484-20.849-5.236-24.67-3.6l-19.457,8.517c-2.086,0.984-3.126,3.277-2.086,5.248
	c1.043,1.965,3.475,2.949,5.561,1.965l19.457-8.521c9.38-3.933,12.161-1.312,14.592,1.308c3.128,3.933,2.431,9.833-1.736,12.781
	l-22.583,16.064c-2.434,1.636-3.475,4.585-2.78,7.205c0.694,2.62,3.126,4.588,5.906,4.916l12.161,1.64L170.2,329.175l0.35-23.597
	c0-9.504-8.341-17.369-18.415-17.041c-0.348,0-0.695,0-1.045,0l0,0c-4.515,0.332-8.686,1.968-11.812,4.92
	c-2.778,2.617-4.519,6.221-5.212,9.829l0,0c0,0.327,0,0.652,0,0.652l0,0c0,0.328,0,0.655,0,0.987l0,0l-16.33,69.478v0.327l0,0l0,0
	l0,0l0,0l0,0l0,0c0,0,0,0,0,0.325l0,0c0,0.327-0.346,0.656-0.693,0.984l0,0c0,0,0,0,0,0.332c0,0,0,0,0,0.319l0,0
	c-1.043-0.319-2.084-0.651-2.782-0.651c-0.693,0-1.737,0-2.431,0.332c-2.778-0.989-5.557-1.969-7.99-2.297l0,0l-2.434-0.332
	l9.729-68.165l1.389-10.813c2.78-0.332,5.56-0.652,7.299-1.64l30.921-13.434c2.084-0.987,3.125-3.276,2.084-5.244
	c-1.042-1.968-3.475-2.949-5.558-1.968L116,285.92h-0.345c-0.35,0-1.045,0.321-2.78,0.652c-0.696-2.951-3.476-4.92-6.601-5.568
	l-10.774-1.312c-1.039-2.623-3.125-4.591-6.251-5.244l-40.651-7.212c-2.083-0.328-4.517,0-6.602,1.309
	c-1.737,1.315-3.127,3.279-3.473,5.244L24.274,375.383c-0.345,2.296,0.35,4.258,1.741,5.901c0.346,0.324,0.346,0.324,0.695,0.655
	c1.387,1.309,3.126,2.293,5.208,2.293l41,2.948c3.125,0.331,5.906-0.98,7.645-3.276l10.77,1.312c2.085,0.328,4.167-0.328,5.906-1.64
	c1.042-0.652,1.736-1.637,2.086-2.62l3.126,0.328c0.347,0,1.043,0.324,1.736,0.324l-3.474,3.279
	c-2.778-0.983-5.907-0.325-7.99,1.637l-30.576,25.893c-1.739,1.313-2.782,3.605-2.782,5.569c0,2.293,0.695,4.262,2.434,5.9l0,0l0,0
	l77.133,72.426c1.737,1.639,3.82,2.295,6.252,2.295s4.517-0.98,5.906-2.619l27.448-29.166c2.086-2.297,2.432-5.245,1.739-7.541
	l7.646-7.209c1.389-1.312,2.433-3.279,2.433-5.243c0-0.984-0.351-2.297-0.698-3.277l2.085-1.967
	c2.086-1.965,6.601-4.262,12.506-6.882c2.086-0.984,3.13-3.275,2.086-5.244c-1.043-1.968-3.474-2.948-5.56-1.968
	c-4.864,1.968-11.464,5.244-14.939,8.524l0,0l-1.737,1.637l-25.365-23.923l-34.395-32.121c1.389-2.289,2.778-4.585,3.125-6.226l0,0
	l16.675-69.805c0-0.324,0-0.652,0-0.984c0-4.916,4.519-9.173,9.729-9.173c5.212,0,9.731,4.257,9.731,9.173l-1.739,27.859
	c0,2.62,1.739,5.248,4.514,6.228c2.783,0.98,5.91,0.656,7.647-1.313l31.269-29.494l0,0l46.903-44.57
	c3.823-3.605,10.079-3.933,13.9-0.329c2.084,1.641,3.125,3.934,3.125,6.557c0,2.621-1.041,4.917-2.778,6.557l0,0l-59.758,56.036
	c-1.739,1.642-1.739,4.258,0,5.577l0,0c1.737,1.636,4.513,1.636,5.906,0l59.411-56.049l0,0l0,0l0,0l11.467-10.813
	c1.737-1.64,4.167-2.624,6.949-2.624c2.433,0,4.863,0.984,6.949,2.624l0,0c1.737,1.641,2.778,3.936,2.778,6.556
	c0,2.296-1.041,4.588-2.778,6.555l0,0l-70.879,66.851c-1.735,1.64-1.735,4.265,0,5.577l0,0c1.736,1.639,4.517,1.639,5.906,0
	l56.634-53.421l0,0c1.736-1.64,4.171-2.62,6.949-2.62c2.78,0,4.862,0.98,6.949,2.62l0,0c1.737,1.636,2.78,3.937,2.78,6.552
	c0,2.301-1.043,4.59-2.78,6.558l-56.634,53.747c-1.736,1.64-1.736,4.261,0,5.568l0,0c1.739,1.641,4.519,1.641,5.906,0l43.084-40.638
	l0,0c3.823-3.601,10.077-3.601,13.899,0l0,0c1.737,1.637,2.78,3.936,2.78,6.557c0,2.295-1.043,4.583-2.78,6.552l0,0l-70.532,65.541
	c-0.346,0.335-0.346,0.335-0.695,0.66l0,0l0,0c-5.212,4.592-11.465,7.54-18.413,8.848c-2.434,0.325-3.823,2.624-3.477,4.589
	c0.348,2.296,2.78,3.607,4.866,3.279c7.992-1.312,15.287-4.587,21.192-9.504l10.771,1.636
	C262.97,423.228,272.349,416.679,273.739,407.171z M31.918,377.353l14.248-101.264l39.954,7.205L72.221,380.3L31.918,377.353z
	 M81.605,377.023l12.507-88.486l9.381,1.312v1.31l0,0l-9.034,63.58l-3.474,23.594L81.605,377.023z M170.55,462.886L170.55,462.886
	L170.55,462.886l-27.104,28.842l-76.783-72.101l30.229-25.563l37.174,34.41L170.55,462.886z M159.429,428.15l20.152,19.006l0,0
	l0.696,0.652l-6.601,6.557l-33.355-31.463l-33.354-31.461l6.602-6.554L159.429,428.15z M311.609,356.379c0,0.655,0,1.639,0,2.295
	c-0.693,4.916-5.559,8.518-10.772,7.864L311.609,356.379z M287.635,378.66c0.35,1.313,0.35,2.624,0.35,3.933
	c-0.697,4.919-5.56,8.52-10.772,7.867l-1.736-0.327L287.635,378.66z M261.581,412.087c-2.086,1.643-4.519,1.968-7.298,1.968
	l-4.169-0.66l13.899-12.773c1.039,1.64,1.387,3.602,1.039,5.568C264.706,408.485,263.663,410.778,261.581,412.087z"/>
</svg>
